# xmcd
#
# Track frame offsets: 
#        150
#        13824
#        28219
#        40846
#        54121
#        66713
#        80120
#        94217
#        108038
#        120961
#        135736
#        151901
#        164831
#        179377
#        193033
#
# Disc length: 2744 seconds
#
# Revision: 1
# Processed by: cddbd v1.5.2PL0 Copyright (c) Steve Scherf et al.
# Submitted via: ExactAudioCopy v1.0b4
#
DISCID=cd0ab60f
DTITLE=Big Bill Broonzy - Mississippi River Blues - CD 2
DYEAR=1900
DGENRE=Blues
TTITLE0=Mountain Blues
TTITLE1=Oh Baby (Don't Do Me That Way)
TTITLE2=Long Tall Mama
TTITLE3=Get Away
TTITLE4=I Want To Go Home
TTITLE5=At The Break Of Day
TTITLE6=Little Bug
TTITLE7=The Sun Gonna Shine In My Door Sameday
TTITLE8=Black Widow Spider
TTITLE9=Come Up To My House
TTITLE10=The Southern Blues
TTITLE11=You Know I Got A Reason
TTITLE12=I Can't Make You Satisfied
TTITLE13=I'm Just A Burn
TTITLE14=You Do Me Any Old Way
EXTD=
EXTT0=
EXTT1=
EXTT2=
EXTT3=
EXTT4=
EXTT5=
EXTT6=
EXTT7=
EXTT8=
EXTT9=
EXTT10=
EXTT11=
EXTT12=
EXTT13=
EXTT14=
PLAYORDER=
